<mxfile host="app.diagrams.net" agent="Mozilla/5.0 (Windows NT 10.0; Win64; x64) AppleWebKit/537.36 (KHTML, like Gecko) Chrome/138.0.0.0 Safari/537.36" version="28.0.7">
  <diagram name="Page-1" id="O1Lu-6KcpfuDMjWsEcXv">
    <mxGraphModel dx="941" dy="555" grid="1" gridSize="10" guides="1" tooltips="1" connect="1" arrows="1" fold="1" page="1" pageScale="1" pageWidth="850" pageHeight="1100" math="0" shadow="0">
      <root>
        <mxCell id="0" />
        <mxCell id="1" parent="0" />
        <mxCell id="7ISFYyu5dtxsC-bxplOJ-1" value="&lt;h3&gt;&lt;font face=&quot;Verdana&quot;&gt;Grocery Management System&lt;/font&gt;&lt;/h3&gt;" style="ellipse;aspect=fixed;fillColor=none;fontColor=#1D3557;strokeColor=#457B9D;fontStyle=1;labelBackgroundColor=none;textShadow=0;align=center;fontSize=19;horizontal=1;labelBorderColor=none;whiteSpace=wrap;html=1;convertToSvg=0;" parent="1" vertex="1">
          <mxGeometry x="340" y="190" width="170" height="170" as="geometry" />
        </mxCell>
        <mxCell id="7ISFYyu5dtxsC-bxplOJ-2" value="&lt;h4&gt;&lt;b&gt;&lt;font face=&quot;Verdana&quot; style=&quot;font-size: 15px;&quot;&gt;Customer&lt;/font&gt;&lt;/b&gt;&lt;/h4&gt;" style="rounded=0;whiteSpace=wrap;html=1;strokeColor=#457B9D;fontColor=#1D3557;fillColor=#A8DADC;" parent="1" vertex="1">
          <mxGeometry x="60" y="245" width="120" height="60" as="geometry" />
        </mxCell>
        <mxCell id="7ISFYyu5dtxsC-bxplOJ-3" value="&lt;h3&gt;&lt;b&gt;&lt;font face=&quot;Verdana&quot; style=&quot;font-size: 15px;&quot;&gt;Seller&lt;/font&gt;&lt;/b&gt;&lt;/h3&gt;" style="rounded=0;whiteSpace=wrap;html=1;strokeColor=#457B9D;fontColor=#1D3557;fillColor=#A8DADC;" parent="1" vertex="1">
          <mxGeometry x="640" y="250" width="120" height="60" as="geometry" />
        </mxCell>
      </root>
    </mxGraphModel>
  </diagram>
</mxfile>
